/* XPM */
static char *xpm__[] = {
/* columns rows colors chars-per-pixel */
"32 31 249 2 ",
"   c #001177",
".  c #001178",
"X  c #00117B",
"o  c #00127B",
"O  c #00117C",
"+  c #00127C",
"@  c #00137C",
"#  c #00127D",
"$  c #00137D",
"%  c #00127E",
"&  c #00137E",
"*  c #00127F",
"=  c #00137F",
"-  c #01147F",
";  c #011480",
":  c #021580",
">  c #031580",
",  c #031680",
"<  c #031681",
"1  c #051780",
"2  c #041781",
"3  c #061880",
"4  c #061981",
"5  c #051882",
"6  c #061882",
"7  c #061982",
"8  c #071A82",
"9  c #081A83",
"0  c #081B83",
"q  c #0A1C83",
"w  c #0C1E83",
"e  c #0B1D84",
"r  c #0C1E85",
"t  c #0D1F85",
"y  c #0D1F86",
"u  c #0E2086",
"i  c #0F2186",
"p  c #0F2187",
"a  c #102185",
"s  c #122385",
"d  c #112287",
"f  c #142584",
"g  c #172887",
"h  c #122488",
"j  c #132488",
"k  c #142589",
"l  c #142689",
"z  c #152689",
"x  c #15278A",
"c  c #16288A",
"v  c #17298B",
"b  c #192988",
"n  c #1C2D88",
"m  c #1A2B8C",
"M  c #1C2D8D",
"N  c #1D2E8E",
"B  c #1E2F8E",
"V  c #1F308E",
"C  c #1F308F",
"Z  c #23338B",
"A  c #24338A",
"S  c #20308F",
"D  c #21318F",
"F  c #26368C",
"G  c #27368C",
"H  c #29388C",
"J  c #2E3D8E",
"K  c #2F3D8F",
"L  c #213190",
"P  c #223390",
"I  c #233391",
"U  c #243491",
"Y  c #263692",
"T  c #283892",
"R  c #283893",
"E  c #2A3994",
"W  c #2D3C95",
"Q  c #2E3D95",
"!  c #2D3D96",
"~  c #2E3E96",
"^  c #303E90",
"/  c #303F97",
"(  c #344290",
")  c #344291",
"_  c #3A4792",
"`  c #334298",
"'  c #334299",
"]  c #344399",
"[  c #354399",
"{  c #354499",
"}  c #35449A",
"|  c #36459A",
" . c #37469A",
".. c #39489C",
"X. c #3A489C",
"o. c #3A499C",
"O. c #3C4B9D",
"+. c #3D4B9D",
"@. c #3D4B9E",
"#. c #3D4C9E",
"$. c #3E4D9E",
"%. c #3F4D9E",
"&. c #4351A1",
"*. c #4553A2",
"=. c #4654A2",
"-. c #4754A2",
";. c #4855A3",
":. c #4956A3",
">. c #4956A4",
",. c #4A57A4",
"<. c #4D5AA6",
"1. c #4D5BA6",
"2. c #4E5CA6",
"3. c #4F5CA7",
"4. c #505CA7",
"5. c #505DA7",
"6. c #515DA7",
"7. c #515EA8",
"8. c #525EA8",
"9. c #5662AA",
"0. c #5764AB",
"q. c #5864AB",
"w. c #5965AC",
"e. c #5B67AD",
"r. c #5D69AD",
"t. c #5D69AE",
"y. c #5E6AAE",
"u. c #5F6AAE",
"i. c #616DAF",
"p. c #616DB0",
"a. c #636EB1",
"s. c #636FB1",
"d. c #6470B1",
"f. c #6974B4",
"g. c #6A75B4",
"h. c #6C77B5",
"j. c #6E79B6",
"k. c #6F79B7",
"l. c #717CB7",
"z. c #717BB8",
"x. c #747EB9",
"c. c #7680BA",
"v. c #7781BA",
"b. c #7781BB",
"n. c #7882BB",
"m. c #7A83BC",
"M. c #7A84BC",
"N. c #7C85BD",
"B. c #7D86BD",
"V. c #7F89BE",
"C. c #7F89BF",
"Z. c #828CC0",
"A. c #848DC1",
"S. c #858EC2",
"D. c #868FC2",
"F. c #8891C3",
"G. c #8A93C4",
"H. c #8B93C5",
"J. c #8D95C6",
"K. c #9098C7",
"L. c #959DCA",
"P. c #969ECA",
"I. c #989FCB",
"U. c #98A0CB",
"Y. c #9AA1CC",
"T. c #9BA2CD",
"R. c #9CA3CD",
"E. c #9EA5CE",
"W. c #9FA5CF",
"Q. c #9FA6CF",
"!. c #A0A6CF",
"~. c #A2A8D0",
"^. c #A2A9D0",
"/. c #A4AAD1",
"(. c #A5ABD2",
"). c #A6ACD2",
"_. c #A8AED3",
"`. c #A9B0D3",
"'. c #AAB0D4",
"]. c #AAB1D4",
"[. c #AEB4D6",
"{. c #AEB4D7",
"}. c #AFB4D7",
"|. c #B0B6D7",
" X c #B2B7D8",
".X c #B2B8D8",
"XX c #B3B8D9",
"oX c #B4B9D9",
"OX c #B6BBDA",
"+X c #B7BBDB",
"@X c #B7BDDA",
"#X c #B7BCDB",
"$X c #B9BDDC",
"%X c #B9BEDC",
"&X c #BABFDC",
"*X c #BABFDD",
"=X c #BBC0DD",
"-X c #BCC0DD",
";X c #BDC1DE",
":X c #BDC2DE",
">X c #BEC2DE",
",X c #BEC3DF",
"<X c #C0C4DF",
"1X c #C2C6E0",
"2X c #C3C8E0",
"3X c #C4C8E1",
"4X c #C6CAE2",
"5X c #C7CAE3",
"6X c #C9CDE3",
"7X c #C8CCE4",
"8X c #C9CCE4",
"9X c #C9CDE4",
"0X c #CACDE4",
"qX c #CACEE5",
"wX c #CBCEE5",
"eX c #CCCFE5",
"rX c #CDD0E6",
"tX c #CDD1E6",
"yX c #CFD2E7",
"uX c #CFD3E7",
"iX c #D0D3E7",
"pX c #D0D3E8",
"aX c #D1D4E8",
"sX c #D2D6E9",
"dX c #D7DAEB",
"fX c #D8DBEB",
"gX c #DDE0EE",
"hX c #E1E3F0",
"jX c #E2E4F1",
"kX c #E4E6F1",
"lX c #E6E8F2",
"zX c #E7E9F2",
"xX c #E8E9F3",
"cX c #ECEDF5",
"vX c #EDEEF5",
"bX c #EFF0F7",
"nX c #F1F2F8",
"mX c #F4F5FA",
"MX c #F8F8FB",
"NX c #F9F9FC",
"BX c #F9FAFC",
"VX c #FAFAFC",
"CX c #FAFBFD",
"ZX c #FCFCFD",
"AX c #FCFCFE",
"SX c #FDFDFE",
"DX c #FEFEFF",
"FX c gray100",
"GX c None",
/* pixels */
"GXGXGXGXGXGXGXGXGXGXGXGXGXGXGX; GXGXGXGXGXGXGXGXGXGXGXGXGXGXGXGX",
"GXGXGXGXGXGXGXGXGXGXGXGXGXGXGX& GXGXGXGXGXGXGXGXGXGXGXGXGX& & & ",
"GXGXGXGXGXGXGXGXGXGXGXGXGXGXGX& GXGXGXGXGXGXGXGXGXGXGXGX  GXGXGX",
"GXGXGXGXGXGXGXGXGXGXGXGX& o & & & & o GXGXGXGXGXGXGXGX  GXGXGXGX",
"GXGXGXGXGXGXGXGXGX& & - R q.n./ z.4.B & & GXGXGXGXGX  GXGXGXGXGX",
"GXGXGXGXGXGXGXGX- 4 y.+XaXaXaX<.aXiXaX).;.: & GXGX  GXGXGXGXGXGX",
"GXGXGXGXGXGXGX&  .+XaXaXaX.XA.E J.;XpXaXpX~.B & o GXGXGXGXGXGXGX",
"GXGXGXGXGXGX& 6.tXaX0XM.I & k t t ; [ K.pXaX<Xh & GXGXGXGXGXGXGX",
"GXGXGXGXGX& *.iXaXW.B e j.eXFX<.CX%X9.: '  Xm.;XI & GXGXGXGXGXGX",
"GXGXGXGX& m 5XaXJ.2 e.xXFXFXFX<.FXFXFXaX..; (.pX}.2 & GXGXGXGXGX",
"GXGXGXGX& H.aX%Xe B.FXFXFXFXvX#.MXFXFXCXA.;.U tXaXi.& GXGXGXGXGX",
"GXGXGX& C iXaX,.! CXFXFXfXy.q ; j c.zXD.vXkXt c.aX;X- GXGXGXGXGX",
"GXGXGX& f.pX#X- |.FXFX}.4 & a q 4 & : 6XFXFXM.v iXaX@.o GXGXGXGX",
"GXGXGX& ~.aXj.B FXFXCXC - _ Z & K f - 6.FXFXhX: Y.aXc.& GXGXGXGX",
"GXGXGX: 0XaX .h.FXFX`.; K 4 & ; ; n b : gXFXFX .a.pXW.& GXGXGXGX",
"GXGXGXt }.}.u Z.0XtX=.& F & ; & & & F - z.tXtX9.' |.P.& GXGXGXGX",
"& & ; 2 j.k.u >.C.C. .& v & & & ; ; f ; 8.C.C.! U z.y.& & & & & ",
"GXGXGX: 0XaX#.a.FXFX+X& H w ; - & A a 4 kXFXFX! h.aXR.& GXGXGXGX",
"GXGXGX; Q.pXb.k CXFXFXW & ( ^ 4 ) F : a.FXFXdX& ~.aXx.& GXGXGXGX",
"GXGXGX& d.aX,X4 W.FXFX2Xk & - 2 & : U zXFXFXh.I pXaXX.o GXGXGXGX",
"GXGXGX& v eXaXe.C mXFXFXvXC.m - ! I.CXFXFXdX4 A.aX=X: GXGXGXGXGX",
"GXGXGXGX& B.aX1Xk i.FXFXFXFXFX;.FXFXFXFXnX .' aXaX6.- GXGXGXGXGX",
"GXGXGXGX& a ;XaXW.t o.tXFXFXFX2.FXFXFX.XI m =XaXW.: GXGXGXGXGXGX",
"GXGXGXGXGX& ' 0XaX.X[ : <.'.cX3.jXU.[ : ,.5XaX%Xv & GXGXGXGXGXGX",
"GXGXGXGXGXGX& X.5XpXaXL.$.5 : : & t 6.'.aXaX+XB & GXGXGXGXGXGXGX",
"GXGXGXGXGXGXGX& Z ~.aXaXpX0XQ.[ _.tXaXaXiXF.u & GXGXGXGXGXGXGXGX",
"GXGXGXGXGXGXGXGX& & *.Y.yXaXaX<.aXaX6XF.! & & GXGXGXGXGXGXGXGXGX",
"GXGXGXGXGXGXGXGXGXGX& & p @.y.U 9.[ 9 & & GXGXGXGXGXGXGXGXGXGXGX",
"GXGXGXGXGXGXGXGXGXGXGXGXGX& & & & o GXGXGXGXGXGXGXGXGXGXGXGXGXGX",
"GXGXGXGXGXGXGXGXGXGXGXGXGXGXGX; GXGXGXGXGXGXGXGXGXGXGXGXGXGXGXGX",
"GXGXGXGXGXGXGXGXGXGXGXGXGXGXGX& GXGXGXGXGXGXGXGXGXGXGXGXGXGXGXGX"
};
